<?xml version="1.0" encoding="iso-8859-1"?>
<!-- Generator: Adobe Illustrator 19.0.0, SVG Export Plug-In . SVG Version: 6.00 Build 0)  -->
<svg version="1.1" id="Layer_1" xmlns="http://www.w3.org/2000/svg" xmlns:xlink="http://www.w3.org/1999/xlink" x="0px" y="0px"
	 viewBox="0 0 512.487 512.487" style="enable-background:new 0 0 512.487 512.487;" xml:space="preserve">
<g transform="translate(1 1)">
	<path style="fill:#FFE100;" d="M263.777,502.822c36.693-0.853,179.2-14.507,179.2-179.2c0-5.973,0-71.68,0-76.8
		c-6.827-120.32-86.187-156.16-139.093-167.253c0,0-21.333-3.413-48.64-3.413s-48.64,3.413-48.64,3.413
		C153.697,90.661,70.07,125.648,67.51,246.822c0,5.973,0,70.827,0,76.8c0,165.547,142.507,178.347,179.2,179.2L263.777,502.822
		L263.777,502.822z"/>
	<g>
		<path style="fill:#FDCC00;" d="M436.151,381.648L436.151,381.648c-23.893,6.827-47.787,10.24-72.533,10.24H142.604
			c-21.333,0-43.52-2.56-64-7.68l-3.413-0.853c29.867,109.227,139.947,119.467,171.52,119.467h17.067
			C295.351,501.968,407.137,491.728,436.151,381.648"/>
		<path style="fill:#FDCC00;" d="M248.417,76.155c-6.827,118.613,2.56,238.08,92.16,273.067c0,0,52.053,18.773,100.693,0.853
			c0.853-8.533,1.707-17.067,1.707-26.453c0-2.56,0-12.8,0-25.6c0-17.067,0-37.547,0-46.933c0-2.56,0-4.267,0-4.267
			c0-3.413-0.853-7.68-0.853-11.093c-0.853-6.827-1.707-13.653-2.56-20.48c-0.853-3.413-0.853-6.827-1.707-9.387
			c-5.973-24.747-15.36-45.227-27.307-61.44c-1.707-1.707-3.413-4.267-4.267-5.973c-21.333-26.453-49.493-41.813-75.093-51.2
			c-1.707-0.853-3.413-0.853-5.12-1.707c-3.413-0.853-6.827-1.707-11.093-2.56c-3.413-0.853-6.827-1.707-10.24-2.56
			c0,0-1.707,0-5.973-0.853c-3.413-0.853-9.387-0.853-15.36-1.707c-4.267,0-8.533-0.853-12.8-0.853s-9.387,0-14.507,0
			C252.684,76.155,250.977,76.155,248.417,76.155"/>
	</g>
	<path style="fill:#FFA800;" d="M442.977,246.822c-6.827-120.32-86.187-156.16-139.093-167.253c0,0-21.333-3.413-48.64-3.413
		c-4.267,0-8.533,0-12.8,0c20.48,0.853,35.84,3.413,35.84,3.413c52.907,11.093,132.267,46.933,139.093,167.253
		c0,5.12,0,70.827,0,76.8c0,159.573-132.267,177.493-174.933,179.2c1.707,0,2.56,0,4.267,0h17.067
		c36.693-0.853,179.2-14.507,179.2-179.2C442.977,317.648,442.977,251.942,442.977,246.822"/>
	<path style="fill:#FFFFFF;" d="M67.51,246.822c6.827-120.32,86.187-156.16,139.093-167.253c0,0,21.333-3.413,48.64-3.413
		c4.267,0,8.533,0,12.8,0c-20.48,0.853-35.84,3.413-35.84,3.413C179.297,90.661,99.937,126.502,93.11,246.822
		c0,5.12,0,70.827,0,76.8c0,159.573,132.267,177.493,174.933,179.2c-1.707,0-2.56,0-4.267,0h-17.067
		c-36.693-0.853-179.2-14.507-179.2-179.2C67.51,317.648,67.51,251.942,67.51,246.822"/>
	<path style="fill:#FFE100;" d="M424.204,168.315c33.28-79.36-23.893-160.427-23.893-160.427
		c-7.68,37.547-23.893,69.12-39.253,92.16C384.951,113.701,408.844,135.035,424.204,168.315"/>
	<path style="fill:#FFA800;" d="M400.311,9.595c-1.707,8.533-3.413,16.213-5.973,24.747c12.8,25.6,27.307,68.267,17.067,113.493
		c5.12,6.827,9.387,14.507,12.8,22.187C457.484,90.661,400.311,9.595,400.311,9.595"/>
	<g>
		<path style="fill:#FFE100;" d="M149.431,100.048c-15.36-23.04-31.573-54.613-39.253-92.16c0,0-57.173,81.067-23.893,160.427
			C101.644,135.035,125.537,113.701,149.431,100.048"/>
		<path style="fill:#FFE100;" d="M67.51,246.822c0.853-30.72,5.973-55.467,15.36-75.947c-16.213,1.707-33.28,5.12-48.64,14.507
			c-21.333,13.653-32.427,40.107-23.893,64c6.827,16.213,21.333,29.013,57.173,14.507l0,0
			C67.51,254.502,67.51,248.528,67.51,246.822"/>
		<path style="fill:#FFE100;" d="M476.257,185.382c-15.36-9.387-33.28-13.653-50.347-14.507c9.387,20.48,16.213,45.227,17.92,75.947
			c0,1.707,0,8.533,0,17.067l0,0c34.987,14.507,50.347,1.707,56.32-14.507C508.684,225.488,497.591,198.182,476.257,185.382"/>
	</g>
	<path style="fill:#FFA800;" d="M476.257,187.088c-15.36-9.387-33.28-13.653-50.347-14.507c0.853,1.707,1.707,3.413,1.707,4.267
		c8.533,2.56,16.213,5.973,23.04,10.24c21.333,13.653,32.427,40.107,23.893,64c-3.413,8.533-8.533,16.213-17.92,18.773
		c25.6,6.827,37.547-5.12,42.667-18.773C508.684,227.195,498.444,200.742,476.257,187.088"/>
	<g>
		<path style="fill:#FFFFFF;" d="M111.031,7.888c1.707,8.533,3.413,16.213,5.973,24.747c-12.8,25.6-27.307,68.267-17.067,113.493
			c-5.12,6.827-9.387,14.507-12.8,22.187C53.857,88.955,111.031,7.888,111.031,7.888"/>
		<path style="fill:#FFFFFF;" d="M34.23,185.382c15.36-9.387,33.28-13.653,50.347-14.507c-0.853,1.707-1.707,3.413-1.707,4.267
			c-8.533,2.56-16.213,5.973-23.04,10.24c-21.333,13.653-32.427,40.107-23.893,64c3.413,8.533,8.533,16.213,17.92,18.773
			c-25.6,6.827-37.547-5.12-42.667-18.773C1.804,225.488,12.897,199.035,34.23,185.382"/>
	</g>
	<path style="fill:#63D3FD;" d="M204.044,204.155c0,14.507-11.093,25.6-25.6,25.6s-25.6-11.093-25.6-25.6s11.093-25.6,25.6-25.6
		S204.044,189.648,204.044,204.155"/>
	<path d="M255.244,434.555c-18.773,0-34.133-11.093-34.133-25.6c0-14.507,15.36-25.6,34.133-25.6s34.133,11.093,34.133,25.6
		S274.017,434.555,255.244,434.555z M255.244,400.422c-10.24,0-17.067,5.12-17.067,8.533s6.827,8.533,17.067,8.533
		c10.24,0,17.067-5.12,17.067-8.533S265.484,400.422,255.244,400.422z"/>
	<path d="M263.777,511.355H246.71c-31.573-0.853-187.733-12.8-187.733-187.733v-9.387c0-20.48,0-63.147,0-67.413
		c2.56-128,92.16-164.693,145.92-174.933c0.853-0.853,23.04-4.267,50.347-4.267s48.64,3.413,50.347,4.267
		c52.053,10.24,139.093,46.08,146.773,174.933c0,4.267,0,34.987,0,68.267v9.387C451.511,498.555,295.351,510.502,263.777,511.355
		L263.777,511.355z M255.244,84.688c-25.6,0-46.933,3.413-46.933,3.413c-58.88,11.947-130.56,48.64-132.267,158.72
		c0,4.267,0,48.64,0,67.413v9.387c0,155.307,130.56,169.813,170.667,170.667h17.067c40.107-0.853,170.667-15.36,170.667-170.667
		v-9.387c0-17.067,0-63.147,0-66.56c-5.973-110.933-75.093-147.627-132.267-158.72C302.177,88.102,280.844,84.688,255.244,84.688z"
		/>
	<path d="M255.244,477.222c-23.04,0-44.373-5.973-64-17.92c-4.267-2.56-5.12-7.68-2.56-11.947s7.68-5.12,11.947-2.56
		c17.067,10.24,35.84,16.213,55.467,16.213s37.547-5.12,55.467-16.213c4.267-2.56,9.387-0.853,11.947,2.56
		c2.56,4.267,0.853,9.387-2.56,11.947C299.617,471.248,278.284,477.222,255.244,477.222z"/>
	<path d="M424.204,176.848c-3.413,0-5.973-1.707-7.68-5.12c-12.8-27.307-33.28-49.493-59.733-64
		c-1.707-0.853-3.413-3.413-4.267-5.12c-0.853-1.707,0-5.12,0.853-6.827c19.627-28.16,32.427-58.88,38.4-89.6
		c0.853-3.413,3.413-5.973,6.827-6.827s6.827,0.853,8.533,3.413c2.56,3.413,59.733,86.187,24.747,168.96
		C431.031,174.288,427.617,176.848,424.204,176.848L424.204,176.848z M373.004,97.488c20.48,12.8,36.693,29.013,49.493,49.493
		c11.947-46.933-5.973-92.16-18.773-116.907C396.897,53.115,386.657,76.155,373.004,97.488z"/>
	<path d="M86.284,176.848L86.284,176.848c-3.413,0-6.827-2.56-7.68-5.12C44.47,88.955,100.79,7.035,103.351,3.621
		c1.707-2.56,5.12-4.267,8.533-3.413s5.973,3.413,6.827,6.827c5.973,30.72,18.773,60.587,38.4,89.6
		c1.707,1.707,1.707,4.267,0.853,6.827s-1.707,4.267-4.267,5.12c-26.453,14.507-46.933,36.693-59.733,64
		C92.257,174.288,89.697,176.848,86.284,176.848z M106.764,30.075c-12.8,23.893-29.867,69.973-18.773,116.053
		c12.8-19.627,29.013-36.693,49.493-49.493C123.831,76.155,113.59,53.115,106.764,30.075z"/>
	<path d="M40.204,278.395L40.204,278.395c-17.92,0-30.72-9.387-37.547-26.453c-10.24-27.307,1.707-58.027,27.307-74.24
		c14.507-8.533,32.427-14.507,52.053-16.213c3.413,0,5.973,0.853,7.68,3.413s1.707,5.973,0.853,8.533
		c-9.387,21.333-13.653,46.08-14.507,73.387c0,1.707,0,8.533,0,17.067c0,3.413-1.707,6.827-5.12,7.68
		C58.977,276.688,48.737,278.395,40.204,278.395z M70.07,181.115c-11.947,2.56-22.187,5.973-30.72,11.947
		c-18.773,11.947-27.307,34.133-20.48,53.76c4.267,10.24,11.093,15.36,21.333,15.36l0,0c5.12,0,11.947-0.853,18.773-3.413
		c0-5.973,0-10.24,0-11.093C58.977,222.075,63.244,200.742,70.07,181.115z"/>
	<path d="M470.284,278.395L470.284,278.395c-8.533,0-18.773-2.56-29.867-6.827c-3.413-0.853-5.973-4.267-5.973-7.68
		c0-8.533,0-15.36,0-17.067c-1.707-27.307-6.827-52.053-17.067-73.387c-0.853-2.56-0.853-5.973,0.853-8.533
		c1.707-2.56,4.267-4.267,7.68-3.413c21.333,1.707,39.253,6.827,54.613,16.213c25.6,16.213,37.547,46.933,27.307,74.24
		C501.004,269.008,488.204,278.395,470.284,278.395z M451.511,257.915c20.48,7.68,34.133,4.267,40.107-11.947
		c6.827-19.627-0.853-41.813-20.48-53.76c-9.387-5.973-20.48-9.387-32.427-11.947c6.827,19.627,11.093,41.813,12.8,65.707
		C451.511,247.675,451.511,251.942,451.511,257.915z"/>
	<path d="M394.337,366.288L394.337,366.288c-31.573,0-55.467-8.533-56.32-9.387c-100.693-39.253-104.107-180.053-98.133-281.6
		c0-4.267,4.267-7.68,8.533-7.68c6.827,0,15.36,0,22.187,0c4.267,0,9.387,0.853,12.8,0.853c6.827,0.853,11.947,0.853,16.213,1.707
		s5.973,0.853,5.973,0.853c3.413,0.853,6.827,1.707,11.093,2.56c2.56,0.853,6.827,2.56,10.24,3.413
		c1.707,0.853,3.413,0.853,5.973,1.707c32.427,11.093,59.733,29.013,79.36,53.76c1.707,1.707,3.413,4.267,5.12,5.973
		c13.653,17.92,23.04,40.107,29.013,64.853c0.853,3.413,1.707,6.827,1.707,10.24c1.707,6.827,2.56,13.653,3.413,21.333
		c0,3.413,0.853,7.68,0.853,11.093c0,0.853,0,2.56,0,5.12c0,9.387,0,29.867,0,46.933v25.6c0,8.533-0.853,17.92-1.707,27.307
		c0,3.413-2.56,5.973-5.12,6.827C429.324,363.728,412.257,366.288,394.337,366.288z M256.097,84.688
		c-5.12,95.573,0,221.867,87.04,256.853c0,0,22.187,7.68,50.347,7.68l0,0c14.507,0,27.307-1.707,39.253-5.973
		c1.707-6.827,1.707-12.8,1.707-19.627v-25.6c0-17.067,0-37.547,0-46.933c0-2.56,0-3.413,0-4.267c0-3.413-0.853-6.827-0.853-10.24
		c-0.853-6.827-1.707-13.653-2.56-19.627c-0.853-3.413-0.853-5.973-1.707-9.387c-5.12-22.187-13.653-41.813-25.6-58.88
		c-1.707-1.707-2.56-3.413-4.267-5.973c-17.92-22.187-41.813-38.4-71.68-47.787c-1.707-0.853-3.413-0.853-5.12-1.707
		c-3.413-0.853-6.827-1.707-10.24-2.56s-6.827-1.707-10.24-2.56l0,0c0,0-1.707,0-5.12-0.853s-8.533-0.853-15.36-1.707
		c-3.413,0-7.68-0.853-12.8-0.853C265.484,84.688,261.217,84.688,256.097,84.688z"/>
	<path d="M178.444,238.288c-18.773,0-34.133-15.36-34.133-34.133s15.36-34.133,34.133-34.133s34.133,15.36,34.133,34.133
		S197.217,238.288,178.444,238.288z M178.444,187.088c-9.387,0-17.067,7.68-17.067,17.067s7.68,17.067,17.067,17.067
		s17.067-7.68,17.067-17.067S187.831,187.088,178.444,187.088z"/>
	<path style="fill:#63D3FD;" d="M357.644,204.155c0,14.507-11.093,25.6-25.6,25.6c-14.507,0-25.6-11.093-25.6-25.6
		s11.093-25.6,25.6-25.6C346.551,178.555,357.644,189.648,357.644,204.155"/>
	<path d="M332.044,238.288c-18.773,0-34.133-15.36-34.133-34.133s15.36-34.133,34.133-34.133s34.133,15.36,34.133,34.133
		S350.817,238.288,332.044,238.288z M332.044,187.088c-9.387,0-17.067,7.68-17.067,17.067s7.68,17.067,17.067,17.067
		s17.067-7.68,17.067-17.067S341.431,187.088,332.044,187.088z"/>
	<path d="M263.777,511.355H246.71c-34.133-0.853-149.333-11.947-180.053-126.293c-0.853-2.56,0-5.973,2.56-8.533
		c1.707-2.56,5.12-3.413,8.533-2.56l3.413,0.853c20.48,5.12,40.96,7.68,62.293,7.68h220.16c23.893,0,47.787-3.413,69.973-10.24
		c2.56-0.853,5.973,0,8.533,1.707c2.56,2.56,3.413,5.12,2.56,8.533C413.964,499.408,298.764,510.502,263.777,511.355
		L263.777,511.355z M87.99,394.448c33.28,90.453,128.853,98.987,158.72,99.84h17.067c29.867-0.853,127.147-10.24,159.573-100.693
		c-19.627,4.267-40.107,6.827-59.733,6.827H142.604C123.831,400.422,105.91,398.715,87.99,394.448z"/>
</g>
<g>
</g>
<g>
</g>
<g>
</g>
<g>
</g>
<g>
</g>
<g>
</g>
<g>
</g>
<g>
</g>
<g>
</g>
<g>
</g>
<g>
</g>
<g>
</g>
<g>
</g>
<g>
</g>
<g>
</g>
</svg>
